<svg xmlns="http://www.w3.org/2000/svg" width="682.667" height="682.667" viewBox="0 0 512 512"><path d="M329 26.2c-4.4 9.5-14.2 29.8-26.8 55.8-3.8 8-9.7 20.1-13 27s-9.7 20.1-14.2 29.5c-4.5 9.3-13.1 27.2-19.1 39.7-6 12.6-12 24.9-13.3 27.5-1.4 2.7-4.9 10-7.9 16.3-5.7 11.9-13.9 28.9-27.2 56.5-12.9 26.6-20.5 42.4-26 54-2.9 6-9.2 19.1-14 29s-10.9 22.5-13.5 28-7.8 16.3-11.5 24c-25.9 53.7-29.5 61.2-29.5 61.8 0 .2 1.5 1 3.3 1.8 1.7.7 7.4 3.2 12.5 5.6 5.2 2.4 9.5 4.3 9.7 4.3s5 2.2 10.7 4.9 11.9 5.6 13.8 6.4 6.1 2.7 9.3 4.1l5.7 2.6 4.4-9.3c2.4-5 7.9-16.4 12.1-25.2 8.7-18 18.2-37.7 26-54 2.9-6.1 8.5-17.8 12.5-26 4-8.3 9.8-20.4 13-27s8.6-17.9 12-25c3.4-7.2 8.4-17.5 11-23s8.5-17.7 13-27c4.5-9.4 10.6-22 13.5-28 2.9-6.1 8.7-18.2 13-27 4.2-8.8 10-20.7 12.7-26.5 11.2-23.3 17.8-37.2 24.1-50 3.5-7.4 9.2-19.1 12.5-26s8.9-18.6 12.5-26c7-14.6 17.5-36.5 23.8-49.6 2.1-4.5 3.9-8.4 3.9-8.7 0-.2-2.8-1.7-6.2-3.2-3.5-1.6-11.4-5.2-17.6-8.2-6.2-2.9-11.5-5.3-11.7-5.3s-4.8-2.1-10.2-4.6c-14.6-6.9-17.9-8.4-18.4-8.4-.3 0-2.4 4.2-4.9 9.2"/></svg>